<svg width="39" height="38" viewBox="0 0 39 38" fill="none" xmlns="http://www.w3.org/2000/svg">
<path d="M23.3438 15.25V0.625C22.1266 0.375 20.8453 0.25 19.5 0.25C18.1547 0.25 16.8734 0.375 15.6562 0.625V15.25H0.665625C0.409375 16.4375 0.28125 17.6875 0.28125 19C0.28125 20.3125 0.409375 21.5625 0.665625 22.75H15.6562V37.375C16.8734 37.625 18.1547 37.75 19.5 37.75C20.8453 37.75 22.1266 37.625 23.3438 37.375V22.75H38.3344C38.5906 21.5625 38.7188 20.3125 38.7188 19C38.7188 17.6875 38.5906 16.4375 38.3344 15.25H23.3438Z" fill="#ED4C5C"/>
<path d="M10.5312 11.5H7.96875L8.60938 7.75L7.96875 4H10.5312L9.89062 7.75L10.5312 11.5Z" fill="#ED4C5C"/>
<path d="M5.40625 9V6.5L9.25 7.125L13.0938 6.5V9L9.25 8.375L5.40625 9ZM31.0312 11.5H28.4688L29.1094 7.75L28.4688 4H31.0312L30.3906 7.75L31.0312 11.5Z" fill="#ED4C5C"/>
<path d="M25.9062 9V6.5L29.75 7.125L33.5938 6.5V9L29.75 8.375L25.9062 9ZM10.5312 34H7.96875C7.96875 34 8.60938 31.1875 8.60938 30.25C8.60938 29.3125 7.96875 26.5 7.96875 26.5H10.5312C10.5312 26.5 9.89062 29.3125 9.89062 30.25C9.89062 31.1875 10.5312 34 10.5312 34Z" fill="#ED4C5C"/>
<path d="M5.40625 31.5V29L9.25 29.625L13.0938 29V31.5L9.25 30.875L5.40625 31.5ZM31.0312 34H28.4688L29.1094 30.25L28.4688 26.5H31.0312L30.3906 30.25L31.0312 34Z" fill="#ED4C5C"/>
<path d="M25.9062 31.5V29L29.75 29.625L33.5938 29V31.5L29.75 30.875L25.9062 31.5Z" fill="#ED4C5C"/>
</svg>
